<?xml version="1.0" encoding="utf-8"?>
<!DOCTYPE svg PUBLIC "-//W3C//DTD SVG 20010904//EN" "http://www.w3.org/TR/2001/REC-SVG-20010904/DTD/svg10.dtd">
<svg height="1024.000000pt" preserveAspectRatio="xMidYMid meet" version="1.0" viewBox="0 0 1024.000000 1024.000000" width="1024.000000pt" xmlns="http://www.w3.org/2000/svg">
<g fill="#000000" stroke="none" transform="translate(0.000000,1024.000000) scale(0.100000,-0.100000)">
<path d="M3750 8481 c-120 -39 -211 -105 -274 -200 -47 -71 -66 -125 -92 -266 -9 -49 -17 -91 -18 -92 -1 -1 -296 -61 -656 -133 -360 -72 -681 -139 -714 -150 -123 -41 -215 -123 -272 -243 -65 -139 -70 -245 -19 -457 68 -283 126 -534 285 -1245 156 -695 554 -2492 660 -2975 28 -129 62 -259 75 -288 33 -71 124 -165 197 -201 116 -58 235 -64 413 -21 50 13 376 80 725 150 l635 128 140 -43 c142 -44 296 -104 1190 -463 356 -143 521 -204 570 -212 143 -23 294 30 399 140 62 65 98 134 162 310 20 58 106 290 190 515 197 530 302 820 582 1595 126 349 271 750 322 890 219 607 459 1279 474 1332 31 108 16 239 -40 351 -40 78 -77 120 -151 170 -75 50 -65 47 -578 212 -198 64 -396 129 -440 145 l-80 27 3 35 c5 52 -23 169 -56 234 -56 110 -146 191 -263 235 -28 11 -317 65 -643 119 -325 55 -710 120 -856 145 -146 25 -579 97 -962 160 -743 122 -806 129 -908 96z m679 -316 c2163 -358 2601 -434 2643 -457 58 -32 104 -95 119 -164 15 -68 40 89 -222 -1399 -110 -621 -254 -1442 -320 -1823 -66 -381 -137 -786 -159 -900 -22 -114 -51 -286 -65 -382 -39 -275 -45 -307 -76 -369 -47 -94 -121 -157 -205 -175 -21 -5 -161 15 -410 58 -836 145 -1391 240 -2049 351 -379 63 -703 121 -720 128 -54 21 -112 90 -131 153 -19 67 -27 14 117 842 49 282 118 685 154 895 36 210 131 760 210 1222 79 462 176 1027 214 1255 126 740 118 705 175 768 36 41 123 79 180 81 16 1 262 -37 545 -84z m-1109 -526 c0 -5 -18 -115 -40 -242 -21 -128 -114 -675 -205 -1217 -91 -542 -197 -1169 -236 -1395 -38 -225 -89 -534 -114 -685 -26 -151 -49 -283 -53 -293 -8 -21 -47 144 -223 952 -61 277 -133 603 -160 725 -28 122 -68 300 -89 396 -50 230 -104 461 -202 875 -92 388 -97 432 -54 520 30 61 83 110 136 126 48 14 1189 247 1218 248 12 1 22 -4 22 -10z m4191 -464 c57 -20 258 -85 446 -146 189 -60 364 -119 390 -130 93 -39 154 -122 155 -209 0 -70 -6 -91 -92 -330 -43 -118 -117 -323 -165 -455 -47 -132 -120 -332 -160 -445 -41 -113 -126 -349 -190 -525 -64 -176 -168 -464 -231 -640 -337 -936 -460 -1271 -584 -1590 -45 -115 -106 -279 -136 -364 -82 -228 -107 -271 -188 -313 -32 -16 -53 -19 -110 -15 -63 4 -111 20 -424 147 -194 78 -351 144 -349 146 1 2 52 -6 112 -16 127 -23 201 -25 271 -6 189 50 327 214 359 427 8 51 31 198 50 326 35 227 148 886 340 1973 53 300 118 673 146 830 67 383 206 1174 225 1283 9 48 19 87 23 87 4 0 54 -16 112 -35z m-4596 -4360 c44 -14 1075 -195 1106 -195 41 0 -33 -18 -307 -75 -170 -35 -373 -77 -451 -94 -143 -31 -181 -32 -233 -5 -32 16 -84 71 -102 109 -19 37 -75 275 -65 275 1 0 24 -7 52 -15z"/>
<!-- MODIFIED CENTRAL SPADE SYMBOL TO RED -->
<path d="M5180 6798 c-230 -219 -431 -377 -750 -591 -314 -210 -406 -289 -499 -425 -150 -222 -172 -491 -59 -705 42 -79 146 -183 225 -225 128 -68 290 -89 436 -56 86 19 200 70 268 119 27 19 51 35 53 35 11 0 -68 -210 -105 -278 -85 -159 -237 -344 -379 -461 -36 -30 -65 -61 -65 -70 0 -12 43 -23 205 -52 210 -39 699 -126 758 -136 44 -8 42 11 -9 89 -84 131 -150 300 -189 483 -21 102 -38 349 -26 380 5 14 17 3 58 -50 126 -163 322 -265 508 -265 286 1 522 204 584 503 29 141 15 270 -48 438 -49 130 -103 216 -282 450 -265 344 -409 561 -524 783 -31 61 -61 111 -66 112 -5 2 -47 -33 -94 -78z" fill="#FF0000"/>
</g>
</svg>
